<?xml version="1.0" encoding="UTF-8" standalone="no"?>
<!-- Created with Inkscape (http://www.inkscape.org/) -->

<svg
   width="737.05701"
   height="736.45074"
   viewBox="0 0 195.01299 194.8526"
   version="1.1"
   id="svg5"
   inkscape:version="1.4.4 (dcaf3e7d9e, 2026-05-05)"
   xml:space="preserve"
   sodipodi:docname="beep.svg"
   xmlns:inkscape="http://www.inkscape.org/namespaces/inkscape"
   xmlns:sodipodi="http://sodipodi.sourceforge.net/DTD/sodipodi-0.dtd"
   xmlns="http://www.w3.org/2000/svg"
   xmlns:svg="http://www.w3.org/2000/svg"><sodipodi:namedview
     id="namedview7"
     pagecolor="#ffffff"
     bordercolor="#000000"
     borderopacity="0.25"
     inkscape:showpageshadow="2"
     inkscape:pageopacity="0.0"
     inkscape:pagecheckerboard="true"
     inkscape:deskcolor="#d1d1d1"
     inkscape:document-units="px"
     showgrid="false"
     inkscape:zoom="3.6398235"
     inkscape:cx="122.67078"
     inkscape:cy="130.08872"
     inkscape:window-width="1670"
     inkscape:window-height="1014"
     inkscape:window-x="0"
     inkscape:window-y="0"
     inkscape:window-maximized="1"
     inkscape:current-layer="layer1" /><defs
     id="defs2" /><g
     inkscape:label="Layer 1"
     inkscape:groupmode="layer"
     id="layer1"
     transform="translate(52.875202,59.947491)"><g
       id="g1329"
       transform="matrix(0.24837886,0.1016492,-0.1016492,0.24837886,33.006648,1.0243711)"><g
         id="g415"
         style="fill:#232542;fill-opacity:1"><path
           style="fill:#232542;fill-opacity:1;stroke-width:0.264583"
           d="m 124.05487,22.55179 v -8.069792 l 5.68854,-5.6839269 5.68854,-5.683928 v 8.0697919 8.069792 l -5.68854,5.683927 -5.68854,5.683928 z"
           id="path397" /><path
           style="fill:#232542;fill-opacity:1;stroke-width:0.264583"
           d="m 53.212681,24.871736 -5.62239,-5.627135 V 11.177826 3.1110501 l 5.69251,5.692513 5.69251,5.6925129 -0.0701,8.001397 -0.0701,8.001397 z"
           id="path395" /><path
           style="fill:#232542;fill-opacity:1;stroke-width:0.264583"
           d="m 175.9132,71.107446 5.68394,-5.688541 h 7.9375 7.9375 l -5.68394,5.688541 -5.68393,5.688538 h -7.9375 -7.9375 z"
           id="path369" /><path
           style="fill:#232542;fill-opacity:1;stroke-width:0.264583"
           d="m -8.7659586,71.107446 -5.6839404,-5.688541 h 7.9375004 7.9375 l 5.68394,5.688541 5.6839296,5.688538 h -7.9374996 -7.9375 z"
           id="path367" /><path
           style="fill:#232542;fill-opacity:1;stroke-width:0.264583"
           d="M 76.099141,90.620514 63.200701,77.720024 V 59.465113 41.210201 l 12.96644,12.966425 12.96641,12.966428 -0.068,18.18898 -0.068,18.188966 z"
           id="path365" /><path
           style="fill:#232542;fill-opacity:1;stroke-width:0.264583"
           d="M 93.696081,85.565714 93.816091,67.21565 106.8188,54.212925 119.82154,41.210201 v 18.256917 18.256916 l -13.12273,13.09587 -13.122719,13.095876 z"
           id="path363" /><path
           style="fill:#232542;fill-opacity:1;stroke-width:0.264583"
           d="m 109.93046,93.988904 12.99538,-12.95985 h 18.35674 18.35671 l -12.96255,12.96458 -12.96254,12.964586 -18.38957,-0.005 -18.389549,-0.005 12.995379,-12.959846 z"
           id="path357" /><path
           style="fill:#232542;fill-opacity:1;stroke-width:0.264583"
           d="m 36.345501,93.993904 -12.96255,-12.96458 h 18.34719 18.34721 l 13.00491,12.95845 13.0049,12.958456 -18.38955,0.006 -18.38957,0.006 z"
           id="path355" /><path
           style="fill:#232542;fill-opacity:1;stroke-width:0.264583"
           d="M 109.89966,124.42098 96.937121,111.4564 h 18.256249 18.25625 l 12.96254,12.96458 12.96255,12.96459 h -18.25625 -18.25625 z"
           id="path347" /><path
           style="fill:#232542;fill-opacity:1;stroke-width:0.264583"
           d="m 36.610081,124.42098 12.96254,-12.96458 h 18.25625 18.25625 l -12.96254,12.96458 -12.96255,12.96459 h -18.25625 -18.25625 z"
           id="path345" /><path
           style="fill:#232542;fill-opacity:1;stroke-width:0.264583"
           d="m 175.9132,147.57203 -5.68393,-5.68854 h 8.06979 8.06979 l 5.68394,5.68854 5.68393,5.68854 h -8.06979 -8.06979 z"
           id="path335" /><path
           style="fill:#232542;fill-opacity:1;stroke-width:0.264583"
           d="m -9.0305486,147.57203 5.68394,-5.68854 h 8.06979 8.0697896 l -5.6839296,5.68854 -5.68394,5.68854 h -8.06979 -8.0698004 z"
           id="path333" /><path
           style="fill:#232542;fill-opacity:1;stroke-width:0.264583"
           d="m 106.79626,164.43921 -12.890949,-12.89843 -0.18166,-18.3224 c -0.11896,-11.998 -0.0915,-18.3224 0.0794,-18.3224 0.14362,0 6.0565,5.82284 13.139789,12.93963 l 12.87868,12.93963 v 18.2812 c 0,10.05467 -0.0302,18.28121 -0.0671,18.28121 -0.0369,0 -5.86809,-5.80429 -12.95813,-12.89844 z"
           id="path325" /><path
           style="fill:#232542;fill-opacity:1;stroke-width:0.264583"
           d="M 63.200701,159.11201 V 140.7561 l 12.89844,-12.94625 12.89844,-12.94624 0.16079,11.724 c 0.0884,6.4482 0.0993,14.71983 0.0243,18.38141 l -0.13645,6.65741 -12.92278,12.92075 -12.92275,12.92074 v -18.35591 z"
           id="path323" /><path
           style="fill:#232542;fill-opacity:1;stroke-width:0.264583"
           d="m 129.67727,209.55091 -5.6224,-5.62716 v -7.93448 -7.93448 l 5.69256,5.69259 5.69259,5.69256 -0.0702,7.86905 -0.0702,7.86905 z"
           id="path313" /><path
           style="fill:#232542;fill-opacity:1;stroke-width:0.264583"
           d="m 47.590291,207.36326 v -7.9375 l 5.68854,-5.68394 5.68854,-5.68394 v 7.9375 7.9375 l -5.68854,5.68394 -5.68854,5.68394 z"
           id="path311" /></g><g
         id="g932"
         style="fill:#f61521;fill-opacity:1"><path
           style="fill:#f61521;fill-opacity:1;stroke-width:0.264583"
           d="m 93.639931,28.244319 0.0122,-10.318123 20.889939,-20.7308109 20.88994,-20.7308111 v 10.148104 10.1481081 l -20.90208,20.9008259 -20.902089,20.900827 0.0122,-10.31812 z"
           id="path393" /><path
           style="fill:#f61521;fill-opacity:1;stroke-width:0.264583"
           d="m 68.423021,17.592379 -20.83914,-20.8405049 0.0693,-10.0785771 0.0694,-10.078577 20.83906,20.7057681 20.83908,20.7057679 -0.0693,10.213314 -0.0693,10.213313 z"
           id="path391" /><path
           style="fill:#f61521;fill-opacity:1;stroke-width:0.264583"
           d="M 139.92987,28.241337 V -1.1274129 l 7.27604,-7.272433 7.27604,-7.2724331 v 29.36875 29.368751 l -7.27604,7.272432 -7.27604,7.272433 z"
           id="path389" /><path
           style="fill:#f61521;fill-opacity:1;stroke-width:0.264583"
           d="m 35.750181,50.271556 -7.20989,-7.213489 V 13.691685 -15.674697 l 7.2772,7.2772051 7.27721,7.277204 -0.0673,29.3026679 -0.0673,29.302665 z"
           id="path387" /><path
           style="fill:#f61521;fill-opacity:1;stroke-width:0.264583"
           d="M 76.231431,47.890592 63.465291,35.122089 v -5.68719 -5.687193 l 12.83774,12.837732 12.83771,12.837729 -0.0716,5.617964 -0.0716,5.617962 z"
           id="path385" /><path
           style="fill:#f61521;fill-opacity:1;stroke-width:0.264583"
           d="m 150.24862,53.644946 7.27244,-7.276042 h 29.50104 29.50105 l -7.27245,7.276042 -7.27244,7.276042 h -29.50104 -29.50104 z"
           id="path383" /><path
           style="fill:#f61521;fill-opacity:1;stroke-width:0.264583"
           d="m 93.627791,55.362714 v -5.688542 l 12.964579,-12.962559 12.96458,-12.96256 v 5.688542 5.688542 l -12.96458,12.962559 -12.964579,12.96256 z"
           id="path381" /><path
           style="fill:#f61521;fill-opacity:1;stroke-width:0.264583"
           d="m -26.228459,53.644946 -7.27245,-7.276042 H -3.9998686 25.501181 l 7.27244,7.276042 7.27244,7.276042 h -29.50104 -29.50104 z"
           id="path379" /><path
           style="fill:#f61521;fill-opacity:1;stroke-width:0.264583"
           d="m 124.05487,55.226043 v -18.25625 l 4.10104,-4.094639 4.10104,-4.094639 v 18.256251 18.25625 l -4.10104,4.094639 -4.10104,4.094639 z"
           id="path377" /><path
           style="fill:#f61521;fill-opacity:1;stroke-width:0.264583"
           d="m 54.800181,69.321649 -4.03489,-4.041243 V 47.02831 28.776213 l 4.10289,4.102884 4.10287,4.102885 -0.068,18.190457 -0.068,18.190456 z"
           id="path375" /><path
           style="fill:#f61521;fill-opacity:1;stroke-width:0.264583"
           d="m 131.33091,72.562655 3.96214,-3.96875 h 18.38854 18.38854 l -3.96214,3.96875 -3.96213,3.968749 h -18.38854 -18.38854 z"
           id="path373" /><path
           style="fill:#f61521;fill-opacity:1;stroke-width:0.264583"
           d="m 14.914241,72.562655 -3.96213,-3.96875 h 18.38854 18.38854 l 3.96214,3.96875 3.96213,3.968749 h -18.38854 -18.38854 z"
           id="path371" /><path
           style="fill:#f61521;fill-opacity:1;stroke-width:0.264583"
           d="m 183.05695,86.188694 20.76853,-20.769789 h 10.31874 10.31876 l -20.76853,20.769789 -20.76852,20.769786 h -10.31875 -10.31875 z"
           id="path361" /><path
           style="fill:#f61521;fill-opacity:1;stroke-width:0.264583"
           d="m 153.02674,93.993904 12.96255,-12.96458 h 5.68854 5.68854 l -12.96254,12.96458 -12.96255,12.964576 h -5.68854 -5.68854 z"
           id="path359" /><path
           style="fill:#f61521;fill-opacity:1;stroke-width:0.264583"
           d="M 18.618411,93.993904 5.6558714,81.029324 h 5.6885396 5.68854 l 12.96254,12.96458 12.96255,12.964576 h -5.68854 -5.68854 z"
           id="path353" /><path
           style="fill:#f61521;fill-opacity:1;stroke-width:0.264583"
           d="m -20.672209,86.188694 -20.76853,-20.769789 h 10.31875 10.31875 L -0.03470864,86.188694 20.733811,106.95848 H 10.415061 0.09631136 Z"
           id="path351" /><path
           style="fill:#f61521;fill-opacity:1;stroke-width:0.264583"
           d="M 152.76216,124.42098 139.79962,111.4564 h 5.68854 5.68854 l 12.96254,12.96458 12.96255,12.96459 h -5.68854 -5.68854 z"
           id="path349" /><path
           style="fill:#f61521;fill-opacity:1;stroke-width:0.264583"
           d="m 18.882991,124.42098 12.96255,-12.96458 h 5.68854 5.68854 l -12.96254,12.96458 -12.96255,12.96459 h -5.68854 -5.6885396 z"
           id="path343" /><path
           style="fill:#f61521;fill-opacity:1;stroke-width:0.264583"
           d="m 131.4632,145.98453 -4.09464,-4.10104 h 18.25636 18.25636 l 3.92297,3.92953 3.92301,3.92954 -1.25124,0.17151 c -0.68819,0.0943 -8.82632,0.1715 -18.08472,0.1715 h -16.83346 z"
           id="path341" /><path
           style="fill:#f61521;fill-opacity:1;stroke-width:0.264583"
           d="m 12.159351,149.89097 -0.90278,-0.10991 3.94218,-3.94879 3.94221,-3.94878 h 18.25636 18.25636 l -4.09464,4.10104 -4.09464,4.10104 -17.20112,-0.0423 c -9.46063,-0.0233 -17.60739,-0.0918 -18.10393,-0.15225 z"
           id="path339" /><path
           style="fill:#f61521;fill-opacity:1;stroke-width:0.264583"
           d="m 183.18925,132.35848 -20.90084,-20.90208 10.31814,0.0122 10.31811,0.0121 20.73082,20.88993 20.73079,20.88994 h -10.14809 -10.1481 l -20.90084,-20.90209 z"
           id="path337" /><path
           style="fill:#f61521;fill-opacity:1;stroke-width:0.264583"
           d="M -20.633239,132.37063 0.09758136,111.4807 10.415691,111.4686 20.733831,111.4565 -0.16700864,132.35859 -21.067849,153.26067 h -10.14809 -10.1481 l 20.7308,-20.88993 z"
           id="path331" /><path
           style="fill:#f61521;fill-opacity:1;stroke-width:0.264583"
           d="m 150.5132,165.03453 -7.27244,-7.27604 h 29.36875 29.36875 l 7.27244,7.27604 7.27245,7.27604 H 187.1544 157.78565 Z"
           id="path329" /><path
           style="fill:#f61521;fill-opacity:1;stroke-width:0.264583"
           d="m -26.228459,165.03453 7.27244,-7.27604 h 29.36875 29.36875 l -7.27244,7.27604 -7.27245,7.27604 H -4.1321586 -33.500909 Z"
           id="path327" /><path
           style="fill:#f61521;fill-opacity:1;stroke-width:0.264583"
           d="m 128.08977,185.73831 -4.0349,-4.04124 v -18.38439 -18.38439 l 4.10287,4.10287 4.10286,4.10288 -0.068,18.32276 -0.068,18.32275 z"
           id="path321" /><path
           style="fill:#f61521;fill-opacity:1;stroke-width:0.264583"
           d="m 50.765291,171.51042 v -18.38855 l 4.10104,-4.09463 4.10104,-4.09464 v 18.38854 18.38854 l -4.10104,4.09464 -4.10104,4.09464 z"
           id="path319" /><path
           style="fill:#f61521;fill-opacity:1;stroke-width:0.264583"
           d="m 106.65852,182.03434 -12.766149,-12.7685 v -5.68719 -5.6872 l 12.837739,12.83774 12.83772,12.83773 -0.0716,5.61795 -0.0716,5.61798 z"
           id="path317" /><path
           style="fill:#f61521;fill-opacity:1;stroke-width:0.264583"
           d="m 63.465291,189.24187 v -5.68853 l 12.96458,-12.96256 12.96458,-12.96256 v 5.68854 5.68854 l -12.96458,12.96256 -12.96458,12.96255 z"
           id="path315" /><path
           style="fill:#f61521;fill-opacity:1;stroke-width:0.264583"
           d="m 147.13977,227.01323 -7.2099,-7.2135 v -29.49866 -29.49869 l 7.27721,7.2772 7.2772,7.27721 -0.0673,29.43496 -0.0673,29.43497 z"
           id="path309" /><path
           style="fill:#f61521;fill-opacity:1;stroke-width:0.264583"
           d="m 28.540291,204.85072 v -29.50105 l 7.27604,-7.27243 7.27604,-7.27244 v 29.50103 29.50105 l -7.27604,7.27244 -7.27604,7.27244 z"
           id="path307" /><path
           style="fill:#f61521;fill-opacity:1;stroke-width:0.264583"
           d="M 114.46372,221.32474 93.627791,200.48745 v -10.31793 -10.31791 l 20.905249,20.90524 20.90524,20.90526 -0.0693,10.24996 -0.0693,10.24998 z"
           id="path305" /><path
           style="fill:#f61521;fill-opacity:1;stroke-width:0.264583"
           d="m 47.590291,231.97287 v -10.31875 l 20.90208,-20.90084 20.90208,-20.90083 v 10.31874 10.31875 l -20.90208,20.90084 -20.90208,20.90084 z"
           id="path303" /></g></g><path
       id="rect1"
       style="opacity:1;fill:#f9f9f9;stroke-width:0.0143441;stroke-linecap:square;stroke-linejoin:bevel;stroke-miterlimit:1"
       d="m -52.875202,-59.947491 h 0.902537 v 0.945515 h -0.902537 z" /></g></svg>
